#!OML:ASF H:\Male1\Project 1\Capture day 1\Session 1\Male1.ASF
:FULLY-SPECIFIED
:DEGREES
185
root -5.51303 13.7373 4.56045 171.478 -75.5741 -143.645
lowerback 43.5439 2.48627 -3.70872
upperback 18.029 -1.88357 -1.95638
thorax -0.257743 -2.20154 0.473087
lowerneck 0.512674 10.8714 10.6018
upperneck -17.2179 13.7241 -13.6579
head -3.4332 6.93149 -6.1548
rclavicle 4.13472e-014 3.78436e-014
rhumerus -26.1829 9.86377 -88.1984
rradius 71.328
rwrist -47.3796
rhand -29.1639 11.1028
rfingers 7.12502
rthumb -2.50997 -18.8621
lclavicle 4.13472e-014 3.78436e-014
lhumerus 44.0708 3.52476 54.1582
lradius 42.0265
lwrist 42.2808
lhand -35.1526 38.6748
lfingers 7.12502
lthumb -8.29207 68.492
rfemur -68.0367 6.37332 35.1378
rtibia 59.0534
rfoot -18.9798 -11.0378
rtoes -18.6406
lfemur -71.2048 5.98831 -14.6939
ltibia 71.8072
lfoot -27.0462 14.5791
ltoes -4.37908
186
root -5.5134 13.7849 4.56544 172.597 -75.5541 -145.201
lowerback 42.9697 2.25602 -3.35778
upperback 18.0545 -1.9776 -2.06137
thorax -0.0936364 -2.21682 0.211581
lowerneck 0.292682 10.8707 10.7809
upperneck -16.8109 13.7276 -13.6121
head -3.26675 6.91538 -6.12977
rclavicle -5.40694e-014 -3.24019e-014
rhumerus -26.1305 9.8618 -88.4525
rradius 70.8518
rwrist -47.0839
rhand -29.1345 11.03
rfingers 7.12502
rthumb -2.48165 -18.9353
lclavicle -5.40694e-014 -3.24019e-014
lhumerus 42.9613 2.85991 53.9458
lradius 42.5005
lwrist 42.1351
lhand -35.0873 38.5625
lfingers 7.12502
lthumb -8.22907 68.3822
rfemur -67.2266 6.36043 34.6788
rtibia 58.388
rfoot -18.8106 -11.0819
rtoes -18.8271
lfemur -70.23 5.7459 -14.9333
ltibia 71.0207
lfoot -26.8315 14.974
ltoes -4.8501
187
root -5.5161 13.8332 4.57111 173.85 -75.478 -146.928
lowerback 42.341 2.08144 -3.05932
upperback 18.0758 -2.02491 -2.14679
thorax 0.0850578 -2.21421 -0.021158
lowerneck 0.0767332 10.8393 11.0295
upperneck -16.3959 13.6843 -13.6198
head -3.0947 6.87531 -6.13271
rclavicle -5.40694e-014 -2.5345e-014
rhumerus -26.088 9.79249 -88.6925
rradius 70.3289
rwrist -46.7382
rhand -29.1952 11.1731
rfingers 7.12502
rthumb -2.54026 -18.7915
lclavicle -5.40694e-014 -2.5345e-014
lhumerus 41.8593 2.10352 53.7564
lradius 42.918
lwrist 42.0378
lhand -34.9852 38.5546
lfingers 7.12502
lthumb -8.13045 68.3782
rfemur -66.3531 6.40684 34.1717
rtibia 57.6976
rfoot -18.6225 -11.1352
rtoes -19.1264
lfemur -69.1749 5.48572 -15.1713
ltibia 70.2201
lfoot -26.6711 15.3654
ltoes -4.95422
188
root -5.52186 13.8826 4.57751 175.144 -75.3312 -148.751
lowerback 41.6757 1.98021 -2.83584
upperback 18.0875 -2.01062 -2.17444
thorax 0.271125 -2.19081 -0.177435
lowerneck -0.112428 10.7746 11.3026
upperneck -15.963 13.5938 -13.6687
head -2.92234 6.81411 -6.15473
rclavicle 6.67916e-014 4.16454e-014
rhumerus -26.0555 9.68174 -88.8587
rradius 69.7576
rwrist -46.371
rhand -29.3692 11.4668
rfingers 7.12502
rthumb -2.70831 -18.4957
lclavicle 6.67916e-014 4.16454e-014
lhumerus 40.7413 1.27698 53.6629
lradius 43.2719
lwrist 42.0023
lhand -34.8813 38.5308
lfingers 7.12502
lthumb -8.03025 68.3582
rfemur -65.381 6.5087 33.6366
rtibia 56.9695
rfoot -18.4217 -11.1611
rtoes -19.3525
lfemur -68.0125 5.20559 -15.3855
ltibia 69.3966
lfoot -26.5566 15.792
ltoes -4.80331
189
root -5.5309 13.9329 4.58467 176.417 -75.108 -150.614
lowerback 40.9854 1.94859 -2.70421
upperback 18.0843 -1.94255 -2.127
thorax 0.457602 -2.15244 -0.22645
lowerneck -0.260242 10.6835 11.5871
upperneck -15.4976 13.469 -13.7616
head -2.74715 6.73977 -6.19475
rclavicle -6.04305e-014 4.35338e-014
rhumerus -26.0164 9.57002 -88.9202
rradius 69.1222
rwrist -45.9758
rhand -29.6873 11.8129
rfingers 7.12502
rthumb -3.01549 -18.1455
lclavicle -6.04305e-014 4.35338e-014
lhumerus 39.5671 0.426865 53.7119
lradius 43.5581
lwrist 41.9934
lhand -34.7581 38.4231
lfingers 7.12502
lthumb -7.91129 68.255
rfemur -64.2987 6.66475 33.0837
rtibia 56.2036
rfoot -18.2097 -11.1459
rtoes -19.4399
lfemur -66.7276 4.8845 -15.5524
ltibia 68.5504
lfoot -26.4992 16.2676
ltoes -4.49317
190
root -5.54642 13.9876 4.59488 177.533 -74.8107 -152.514
lowerback 40.4379 1.95426 -2.61687
upperback 18.0716 -1.8618 -2.03414
thorax 0.599938 -2.11725 -0.20698
lowerneck -0.395339 10.583 11.8291
upperneck -14.9664 13.3381 -13.8289
head -2.56137 6.66489 -6.21974
rclavicle 2.70347e-014 8.24956e-014
rhumerus -25.9444 9.475 -88.896
rradius 68.3966
rwrist -45.5159
rhand -30.1775 12.2097
rfingers 7.12502
rthumb -3.48886 -17.7415
lclavicle 2.70347e-014 8.24956e-014
lhumerus 38.2956 -0.411133 53.8891
lradius 43.7841
lwrist 41.9705
lhand -34.5537 38.2104
lfingers 7.12502
lthumb -7.71406 68.0496
rfemur -62.9366 6.82394 32.5097
rtibia 55.3885
rfoot -18.0017 -11.0765
rtoes -19.5371
lfemur -65.1287 4.44111 -15.6505
ltibia 67.6593
lfoot -26.5353 16.8233
ltoes -4.08261
191
root -5.56535 14.0411 4.6063 178.546 -74.4484 -154.387
lowerback 39.8895 1.9673 -2.56572
upperback 18.0506 -1.78579 -1.92964
thorax 0.737663 -2.08791 -0.15482
lowerneck -0.523072 10.5014 12.0591
upperneck -14.3747 13.242 -13.859
head -2.35973 6.60728 -6.22908
rclavicle 3.49861e-014 5.10877e-014
rhumerus -25.7864 9.37585 -88.8454
rradius 67.5441
rwrist -44.9333
rhand -30.8128 12.6912
rfingers 7.12502
rthumb -4.10241 -17.249
lclavicle 3.49861e-014 5.10877e-014
lhumerus 36.9034 -1.21148 54.1353
lradius 43.9732
lwrist 41.9245
lhand -34.2545 37.8446
lfingers 7.12502
lthumb -7.42518 67.6943
rfemur -61.4606 7.04502 31.9161
rtibia 54.5489
rfoot -17.7631 -10.9972
rtoes -19.7924
lfemur -63.3972 3.91307 -15.6854
ltibia 66.7675
lfoot -26.6212 17.3899
ltoes -3.59701
